<?xml version="1.0" standalone="no"?><!DOCTYPE svg PUBLIC "-//W3C//DTD SVG 1.1//EN" "http://www.w3.org/Graphics/SVG/1.1/DTD/svg11.dtd"><svg t="1722763688979" class="icon" viewBox="0 0 1024 1024" version="1.1" xmlns="http://www.w3.org/2000/svg" p-id="10024" width="64" height="64" xmlns:xlink="http://www.w3.org/1999/xlink"><path d="M650.51559506 186.42362469c0-1.29453827 1.03563061-2.33016889 2.33016889-2.33016888h136.31488c1.29453827 0 2.33016889 1.03563061 2.33016888 2.33016888v405.44938667c0 1.29453827-1.03563061 2.33016889-2.33016888 2.33016889H652.71631013c-1.29453827 0-2.33016889-1.03563061-2.33016889-2.33016889V186.42362469zM118.58981925 997.96966717c0 1.29453827 1.03563061 2.33016889 2.3301689 2.33016888h132.0429037c1.29453827 0 2.33016889-1.03563061 2.3301689-2.33016888V797.57514272c0-1.29453827-1.03563061-2.33016889-2.3301689-2.33016889h-63.69128296c-1.29453827 0-2.33016889-1.03563061-2.33016889-2.33016889v-20.97152c0-1.29453827 1.03563061-2.33016889 2.33016889-2.33016889H253.09234569c1.29453827 0 2.33016889-1.03563061 2.33016888-2.33016888V527.14609778c0-1.29453827-1.03563061-2.33016889-2.33016888-2.33016889h-63.69128297c-1.29453827 0-2.33016889-1.03563061-2.33016889-2.33016889v-20.97152c0-1.29453827 1.03563061-2.33016889 2.33016889-2.33016889H253.09234569c1.29453827 0 2.33016889-1.03563061 2.33016888-2.33016889V250.7621768c0-1.29453827-1.03563061-2.33016889-2.33016888-2.3301689h-63.69128297c-1.29453827 0-2.33016889-1.03563061-2.33016889-2.33016888v-20.97152c0-1.29453827 1.03563061-2.33016889 2.33016889-2.33016889H253.09234569c1.29453827 0 2.33016889-1.03563061 2.33016888-2.33016889V20.20491061c0-1.29453827-1.03563061-2.33016889-2.33016888-2.33016888H121.04944197c-1.29453827 0-2.33016889 1.03563061-2.33016888 2.33016888v977.76475656z m175.40993581-971.8098805c-1.29453827 0-2.33016889 1.03563061-2.33016889 2.33016888v977.89421037c0 1.29453827 1.03563061 2.33016889 2.33016889 2.3301689h610.50424889c1.29453827 0 2.33016889-1.03563061 2.33016888-2.3301689V28.48995555c0-1.29453827-1.03563061-2.33016889-2.33016888-2.33016888H293.99975506z m522.99346174 591.4745363c0 1.29453827-1.03563061 2.33016889-2.3301689 2.33016888H627.08445235c-1.29453827 0-2.33016889-1.03563061-2.33016888-2.33016888V160.92122075c0-1.29453827 1.03563061-2.33016889 2.33016888-2.3301689h187.57859555c1.29453827 0 2.33016889 1.03563061 2.3301689 2.3301689v456.71310222z m0 0" p-id="10025" fill="#1565c0"></path></svg>